<svg width="515" height="515" xmlns="http://www.w3.org/2000/svg" xmlns:xlink="http://www.w3.org/1999/xlink" xml:space="preserve" overflow="hidden"><g transform="translate(-115 -118)"><path d="M115 118 630 118 630 633 115 633Z" fill="#FFFFFF"/><path d="M117.06 120.06 627.94 120.06 627.94 630.94 117.06 630.94Z" fill="#FFFFFF"/><path d="M481.678 254.879 481.476 324.797" stroke="#000000" stroke-width="2.06" stroke-linecap="round" stroke-linejoin="round"/><path d="M512.005 237.486 481.678 254.879" stroke="#000000" stroke-width="2.06" stroke-linecap="round" stroke-linejoin="round"/><path d="M512.005 237.486 526.469 229.191" stroke="#FF0000" stroke-width="2.06" stroke-linecap="round" stroke-linejoin="round"/><path d="M454.523 232.029 484.747 249.597" stroke="#000000" stroke-width="2.06" stroke-linecap="round" stroke-linejoin="round"/><path d="M454.523 232.029 440.107 223.651" stroke="#FF0000" stroke-width="2.06" stroke-linecap="round" stroke-linejoin="round"/><path d="M448.384 242.593 478.609 260.159" stroke="#000000" stroke-width="2.06" stroke-linecap="round" stroke-linejoin="round"/><path d="M448.384 242.593 433.968 234.213" stroke="#FF0000" stroke-width="2.06" stroke-linecap="round" stroke-linejoin="round"/><path d="M239.022 464.902 239.119 534.82" stroke="#000000" stroke-width="2.06" stroke-linecap="round" stroke-linejoin="round"/><path d="M239.022 464.902 299.527 429.859" stroke="#000000" stroke-width="2.06" stroke-linecap="round" stroke-linejoin="round"/><path d="M239.119 534.82 299.72 569.698" stroke="#000000" stroke-width="2.06" stroke-linecap="round" stroke-linejoin="round"/><path d="M239.119 534.82 178.617 569.865" stroke="#000000" stroke-width="2.06" stroke-linecap="round" stroke-linejoin="round"/><path d="M481.476 324.797 537.712 367.186 546.144 352.677Z" stroke="#000000" stroke-width="1.442" stroke-linecap="round" stroke-linejoin="round"/><path d="M481.476 324.797 420.823 359.582" stroke="#000000" stroke-width="2.06" stroke-linecap="round" stroke-linejoin="round"/><path d="M420.823 359.582 420.823 429.859" stroke="#000000" stroke-width="2.06" stroke-linecap="round" stroke-linejoin="round" fill="none"/><path d="M408.606 370.826 408.606 418.614" stroke="#000000" stroke-width="2.06" stroke-linecap="round" stroke-linejoin="round" fill="none"/><path d="M420.823 359.582 360.175 324.099" stroke="#000000" stroke-width="2.06" stroke-linecap="round" stroke-linejoin="round"/><path d="M420.823 429.859 360.175 464.651" stroke="#000000" stroke-width="2.06" stroke-linecap="round" stroke-linejoin="round"/><path d="M360.175 464.651 299.527 429.859" stroke="#000000" stroke-width="2.06" stroke-linecap="round" stroke-linejoin="round"/><path d="M356.551 448.486 315.31 424.829" stroke="#000000" stroke-width="2.06" stroke-linecap="round" stroke-linejoin="round"/><path d="M299.527 429.859 299.527 359.582" stroke="#000000" stroke-width="2.06" stroke-linecap="round" stroke-linejoin="round" fill="none"/><path d="M299.527 359.582 360.175 324.099" stroke="#000000" stroke-width="2.06" stroke-linecap="round" stroke-linejoin="round"/><path d="M315.401 364.45 356.642 340.319" stroke="#000000" stroke-width="2.06" stroke-linecap="round" stroke-linejoin="round"/><text fill="#008000" font-family="Arial,Arial_MSFontService,sans-serif" font-weight="400" font-size="71" transform="matrix(0.206 0 0 0.206 487.444 268)">C</text><text fill="#008000" font-family="Arial,Arial_MSFontService,sans-serif" font-weight="400" font-size="71" transform="matrix(0.206 0 0 0.206 498.006 268)">1</text><text fill="#008000" font-family="Arial,Arial_MSFontService,sans-serif" font-weight="400" font-size="71" transform="matrix(0.206 0 0 0.206 214.525 461)">C</text><text fill="#008000" font-family="Arial,Arial_MSFontService,sans-serif" font-weight="400" font-size="71" transform="matrix(0.206 0 0 0.206 225.087 461)">2</text><text fill="#008000" font-family="Arial,Arial_MSFontService,sans-serif" font-weight="400" font-size="71" transform="matrix(0.206 0 0 0.206 229.795 557)">C</text><text fill="#008000" font-family="Arial,Arial_MSFontService,sans-serif" font-weight="400" font-size="71" transform="matrix(0.206 0 0 0.206 240.358 557)">3</text><text fill="#008000" font-family="Arial,Arial_MSFontService,sans-serif" font-weight="400" font-size="71" transform="matrix(0.206 0 0 0.206 305.523 583)">C</text><text fill="#008000" font-family="Arial,Arial_MSFontService,sans-serif" font-weight="400" font-size="71" transform="matrix(0.206 0 0 0.206 316.086 583)">4</text><text fill="#008000" font-family="Arial,Arial_MSFontService,sans-serif" font-weight="400" font-size="71" transform="matrix(0.206 0 0 0.206 154.142 583)">C</text><text fill="#008000" font-family="Arial,Arial_MSFontService,sans-serif" font-weight="400" font-size="71" transform="matrix(0.206 0 0 0.206 164.704 583)">5</text><text fill="#008000" font-family="Arial,Arial_MSFontService,sans-serif" font-weight="400" font-size="71" transform="matrix(0.206 0 0 0.206 439.711 316)">C</text><text fill="#008000" font-family="Arial,Arial_MSFontService,sans-serif" font-weight="400" font-size="71" transform="matrix(0.206 0 0 0.206 450.274 316)">6</text><text fill="#008000" font-family="Arial,Arial_MSFontService,sans-serif" font-weight="400" font-size="71" transform="matrix(0.206 0 0 0.206 458.408 316)">(</text><text fill="#008000" font-family="Arial,Arial_MSFontService,sans-serif" font-weight="400" font-size="71" transform="matrix(0.206 0 0 0.206 463.278 316)">S</text><text fill="#008000" font-family="Arial,Arial_MSFontService,sans-serif" font-weight="400" font-size="71" transform="matrix(0.206 0 0 0.206 473.034 316)">)</text><text fill="#008000" font-family="Arial,Arial_MSFontService,sans-serif" font-weight="400" font-size="71" transform="matrix(0.206 0 0 0.206 547.693 374)">C</text><text fill="#008000" font-family="Arial,Arial_MSFontService,sans-serif" font-weight="400" font-size="71" transform="matrix(0.206 0 0 0.206 558.255 374)">7</text><text fill="#008000" font-family="Arial,Arial_MSFontService,sans-serif" font-weight="400" font-size="71" transform="matrix(0.206 0 0 0.206 411.551 347)">C</text><text fill="#008000" font-family="Arial,Arial_MSFontService,sans-serif" font-weight="400" font-size="71" transform="matrix(0.206 0 0 0.206 422.114 347)">8</text><text fill="#008000" font-family="Arial,Arial_MSFontService,sans-serif" font-weight="400" font-size="71" transform="matrix(0.206 0 0 0.206 432.598 447)">C</text><text fill="#008000" font-family="Arial,Arial_MSFontService,sans-serif" font-weight="400" font-size="71" transform="matrix(0.206 0 0 0.206 443.161 447)">9</text><text fill="#008000" font-family="Arial,Arial_MSFontService,sans-serif" font-weight="400" font-size="71" transform="matrix(0.206 0 0 0.206 346.76 496)">C</text><text fill="#008000" font-family="Arial,Arial_MSFontService,sans-serif" font-weight="400" font-size="71" transform="matrix(0.206 0 0 0.206 357.322 496)">10</text><text fill="#008000" font-family="Arial,Arial_MSFontService,sans-serif" font-weight="400" font-size="71" transform="matrix(0.206 0 0 0.206 263.938 422)">C</text><text fill="#008000" font-family="Arial,Arial_MSFontService,sans-serif" font-weight="400" font-size="71" transform="matrix(0.206 0 0 0.206 274.501 422)">11</text><text fill="#008000" font-family="Arial,Arial_MSFontService,sans-serif" font-weight="400" font-size="71" transform="matrix(0.206 0 0 0.206 263.369 351)">C</text><text fill="#008000" font-family="Arial,Arial_MSFontService,sans-serif" font-weight="400" font-size="71" transform="matrix(0.206 0 0 0.206 273.931 351)">12</text><text fill="#008000" font-family="Arial,Arial_MSFontService,sans-serif" font-weight="400" font-size="71" transform="matrix(0.206 0 0 0.206 346.76 303)">C</text><text fill="#008000" font-family="Arial,Arial_MSFontService,sans-serif" font-weight="400" font-size="71" transform="matrix(0.206 0 0 0.206 357.322 303)">13</text><text fill="#FF0000" font-family="Arial,Arial_MSFontService,sans-serif" font-weight="400" font-size="146" transform="matrix(0.206 0 0 0.206 530.636 230)">O</text><text fill="#FF0000" font-family="Arial,Arial_MSFontService,sans-serif" font-weight="400" font-size="146" transform="matrix(0.206 0 0 0.206 554.481 230)">H</text><text fill="#008000" font-family="Arial,Arial_MSFontService,sans-serif" font-weight="400" font-size="71" transform="matrix(0.206 0 0 0.206 571.243 203)">O</text><text fill="#008000" font-family="Arial,Arial_MSFontService,sans-serif" font-weight="400" font-size="71" transform="matrix(0.206 0 0 0.206 582.62 203)">1</text><text fill="#FF0000" font-family="Arial,Arial_MSFontService,sans-serif" font-weight="400" font-size="146" transform="matrix(0.206 0 0 0.206 409.53 230)">O</text><text fill="#008000" font-family="Arial,Arial_MSFontService,sans-serif" font-weight="400" font-size="71" transform="matrix(0.206 0 0 0.206 385.782 210)">O</text><text fill="#008000" font-family="Arial,Arial_MSFontService,sans-serif" font-weight="400" font-size="71" transform="matrix(0.206 0 0 0.206 397.158 210)">2</text></g></svg>